# xmcd
#
# Track frame offsets: 
#        150
#        20467
#        54603
#        73320
#        89459
#        111073
#        141750
#        168562
#        188740
#        211989
#        234242
#        261647
#        280061
#        305904
#        325894
#
# Disc length: 4598 seconds
#
# Revision: 0
# Processed by: cddbd v1.5.2PL0 Copyright (c) Steve Scherf et al.
# Submitted via: ExactAudioCopy v0.95b1
#
DISCID=e411f40f
DTITLE=Various Artist - Time Blues Collection Vol. 1
DYEAR=2001
DGENRE=Blues
TTITLE0=Freddie King - Help me Through the Day 
TTITLE1=Rondo's Blues Deluxe - Bflat Minor Blues 
TTITLE2=Bill Perry -I cant see the Light of Day 
TTITLE3=Kerry Kearney band - Hair Hang down 
TTITLE4=Lucky Peterson - Double Dealing 
TTITLE5=Dick Heckstall-Smith and Peter Green - Cruel Contradition
TTITLE6=Mick Morgan and The Crawl - Gold Wind 
TTITLE7=Rick Vito - One Short life 
TTITLE8=The Beat Daddys - Someboy's Waiting 
TTITLE9=Tony Sarno - Screamin Blues demon 
TTITLE10=Mark May and the Agitators - Took my by Surprise 
TTITLE11=Roy Roberts - Comin thru the Back Door 
TTITLE12=The Maynard Brothers Band - Call the Warden 
TTITLE13=Popa Chubby Band - Angel on my Shoulder 
TTITLE14=Swamp Mama Jonson - Cradle Robbin Mambo
EXTD=
EXTT0=
EXTT1=
EXTT2=
EXTT3=
EXTT4=
EXTT5=
EXTT6=
EXTT7=
EXTT8=
EXTT9=
EXTT10=
EXTT11=
EXTT12=
EXTT13=
EXTT14=
PLAYORDER=
